<?xml version="1.0" encoding="UTF-8"?>
<svg id="Layer_2" data-name="Layer 2" xmlns="http://www.w3.org/2000/svg" viewBox="0 0 81.54 15.22">
  <defs>
    <style>
      .cls-1 {
        fill: #fff;
      }
    </style>
  </defs>
  <g id="Layer_1-2" data-name="Layer 1">
    <g>
      <path class="cls-1" d="m1.61.71c.44,0,.82.16,1.14.48.32.32.48.71.48,1.17s-.16.84-.47,1.16c-.31.32-.69.48-1.13.48s-.83-.16-1.15-.49c-.32-.32-.48-.72-.48-1.18s.16-.83.47-1.14.69-.47,1.14-.47ZM.34,4.87h2.53v10.09H.34V4.87Z"/>
      <path class="cls-1" d="m11.41.97h2.53v13.99h-2.53v-1.07c-.49.47-.99.81-1.49,1.02-.5.21-1.04.31-1.62.31-1.3,0-2.43-.51-3.38-1.52-.95-1.01-1.43-2.27-1.43-3.77s.46-2.84,1.38-3.83c.92-1,2.04-1.49,3.35-1.49.6,0,1.17.11,1.7.34.53.23,1.02.57,1.47,1.03V.97Zm-2.66,5.97c-.78,0-1.43.28-1.95.83-.52.55-.78,1.26-.78,2.13s.26,1.59.79,2.15c.53.56,1.18.84,1.95.84s1.45-.28,1.98-.83c.52-.55.79-1.28.79-2.18s-.26-1.59-.79-2.13c-.52-.54-1.19-.82-1.99-.82Z"/>
      <path class="cls-1" d="m25.4,10.65h-8.14c.12.72.43,1.29.94,1.71.51.42,1.16.64,1.95.64.95,0,1.76-.33,2.44-.99l2.13,1c-.53.75-1.17,1.31-1.91,1.67-.74.36-1.62.54-2.64.54-1.58,0-2.87-.5-3.87-1.5-1-1-1.49-2.25-1.49-3.75s.5-2.82,1.49-3.84c.99-1.02,2.24-1.53,3.73-1.53,1.59,0,2.88.51,3.88,1.53,1,1.02,1.49,2.36,1.49,4.03v.48Zm-2.54-1.99c-.17-.56-.5-1.02-.99-1.37s-1.06-.53-1.71-.53c-.71,0-1.33.2-1.86.59-.33.25-.64.68-.93,1.31h5.49Z"/>
      <path class="cls-1" d="m33.68,4.87h2.53v10.09h-2.53v-1.07c-.49.47-.99.81-1.49,1.02-.5.21-1.04.31-1.62.31-1.3,0-2.43-.51-3.38-1.52-.95-1.01-1.43-2.27-1.43-3.77s.46-2.84,1.38-3.83c.92-1,2.04-1.49,3.35-1.49.6,0,1.17.11,1.7.34.53.23,1.02.57,1.47,1.03v-1.11Zm-2.66,2.08c-.78,0-1.43.28-1.95.83-.52.55-.78,1.26-.78,2.13s.26,1.59.79,2.15c.53.56,1.18.84,1.95.84s1.45-.28,1.98-.83c.52-.55.79-1.28.79-2.18s-.26-1.59-.79-2.13c-.52-.54-1.19-.82-1.99-.82Z"/>
    </g>
    <g>
      <path class="cls-1" d="m44.07,8.61l.86.45c-.28.56-.61,1.01-.98,1.35s-.79.6-1.25.78c-.46.18-.99.27-1.58.27-1.3,0-2.32-.43-3.05-1.28-.73-.85-1.1-1.81-1.1-2.89,0-1.01.31-1.91.93-2.7.79-1.01,1.84-1.51,3.16-1.51s2.44.52,3.25,1.55c.58.73.87,1.64.88,2.72h-7.17c.02.93.32,1.68.89,2.28.57.59,1.28.89,2.12.89.41,0,.8-.07,1.18-.21s.71-.33.98-.56c.27-.23.56-.61.87-1.13Zm0-2.15c-.14-.55-.34-.98-.6-1.31s-.61-.59-1.04-.79-.88-.3-1.36-.3c-.78,0-1.45.25-2.02.75-.41.37-.72.92-.93,1.65h5.94Z"/>
      <path class="cls-1" d="m46.15,3.28h1.03v1.43c.41-.55.86-.96,1.36-1.23.5-.27,1.04-.41,1.63-.41s1.12.15,1.59.45c.46.3.8.71,1.02,1.22s.33,1.31.33,2.4v4.1h-1.03v-3.8c0-.92-.04-1.53-.11-1.84-.12-.53-.35-.92-.68-1.19-.34-.27-.78-.4-1.32-.4-.62,0-1.18.21-1.67.62-.49.41-.81.92-.97,1.52-.1.4-.15,1.12-.15,2.17v2.92h-1.03V3.28Z"/>
      <path class="cls-1" d="m61.21,3.28h1.03v6.35c0,1.12-.1,1.94-.29,2.45-.27.73-.73,1.3-1.4,1.69s-1.46.59-2.4.59c-.68,0-1.3-.1-1.84-.29-.54-.19-.99-.45-1.33-.78s-.66-.8-.94-1.43h1.11c.3.53.69.92,1.17,1.17s1.07.38,1.78.38,1.29-.13,1.77-.39.83-.59,1.03-.98c.21-.39.31-1.03.31-1.91v-.41c-.39.49-.86.86-1.42,1.12s-1.15.39-1.77.39c-.73,0-1.42-.18-2.07-.55-.65-.36-1.14-.85-1.5-1.47s-.53-1.29-.53-2.03.18-1.42.55-2.06c.37-.64.87-1.14,1.52-1.51.65-.37,1.33-.56,2.05-.56.6,0,1.15.12,1.67.37.52.25,1.01.65,1.49,1.22v-1.38Zm-3.02.78c-.58,0-1.12.14-1.62.42s-.89.67-1.17,1.16c-.28.5-.42,1.03-.42,1.61,0,.87.29,1.6.88,2.17s1.35.86,2.28.86,1.7-.28,2.27-.85.86-1.31.86-2.23c0-.6-.13-1.14-.4-1.61-.26-.47-.64-.84-1.12-1.12s-1-.41-1.56-.41Z"/>
      <path class="cls-1" d="m63.83,0c.23,0,.43.08.6.25.17.17.25.37.25.6s-.08.43-.25.59c-.17.17-.36.25-.6.25s-.43-.08-.59-.25c-.17-.17-.25-.36-.25-.59s.08-.43.25-.6c.17-.17.36-.25.59-.25Zm-.51,3.28h1.03v7.97h-1.03V3.28Z"/>
      <path class="cls-1" d="m65.52,3.28h1.03v1.43c.41-.55.86-.96,1.36-1.23.5-.27,1.04-.41,1.63-.41s1.12.15,1.59.45c.46.3.8.71,1.02,1.22s.33,1.31.33,2.4v4.1h-1.03v-3.8c0-.92-.04-1.53-.11-1.84-.12-.53-.35-.92-.68-1.19-.34-.27-.78-.4-1.32-.4-.62,0-1.18.21-1.67.62-.49.41-.81.92-.97,1.52-.1.4-.15,1.12-.15,2.17v2.92h-1.03V3.28Z"/>
      <path class="cls-1" d="m80.41,8.61l.86.45c-.28.56-.61,1.01-.98,1.35s-.79.6-1.25.78c-.46.18-.99.27-1.58.27-1.3,0-2.32-.43-3.05-1.28-.73-.85-1.1-1.81-1.1-2.89,0-1.01.31-1.91.93-2.7.79-1.01,1.84-1.51,3.16-1.51s2.44.52,3.25,1.55c.58.73.87,1.64.88,2.72h-7.17c.02.93.32,1.68.89,2.28.57.59,1.28.89,2.12.89.41,0,.8-.07,1.18-.21s.71-.33.98-.56c.27-.23.56-.61.87-1.13Zm0-2.15c-.14-.55-.34-.98-.6-1.31s-.61-.59-1.04-.79-.88-.3-1.36-.3c-.78,0-1.45.25-2.02.75-.41.37-.72.92-.93,1.65h5.94Z"/>
    </g>
  </g>
</svg>